<?xml version="1.0" encoding="utf-8"?>
<!-- Generator: Adobe Illustrator 16.0.3, SVG Export Plug-In . SVG Version: 6.00 Build 0)  -->
<!DOCTYPE svg PUBLIC "-//W3C//DTD SVG 1.1//EN" "http://www.w3.org/Graphics/SVG/1.1/DTD/svg11.dtd">
<svg version="1.1" id="Layer_1" xmlns="http://www.w3.org/2000/svg" xmlns:xlink="http://www.w3.org/1999/xlink" x="0px" y="0px"
	 width="612px" height="792px" viewBox="0 0 612 792" enable-background="new 0 0 612 792" xml:space="preserve">
<path fill="#FF5A5F" d="M3.492,355.755c0.956,2.294,1.912,4.779,2.868,6.883c1.53,3.441,3.059,6.691,4.397,9.75l0.191,0.191
	c13.192,28.678,27.34,57.74,42.253,86.418l0.573,1.146c1.53,2.868,3.059,5.928,4.589,8.986c1.912,3.441,3.824,7.074,6.883,10.516
	c6.118,7.647,14.913,11.854,24.281,11.854c9.56,0,18.163-4.206,24.472-11.471c2.868-3.441,4.971-7.074,6.883-10.516
	c1.53-3.06,3.059-6.119,4.589-8.986l0.573-1.147c14.722-28.679,29.061-57.739,42.253-86.417l0.191-0.383
	c1.338-3.059,2.868-6.31,4.397-9.751c0.956-2.103,1.912-4.397,2.868-6.883c2.485-7.073,3.25-13.766,2.294-20.648
	c-2.103-14.339-11.663-26.384-24.855-31.737c-4.971-2.104-10.133-3.06-15.486-3.06c-1.529,0-3.441,0.191-4.971,0.383
	c-6.31,0.765-12.81,2.868-19.119,6.5c-7.839,4.397-15.295,10.707-23.708,19.885c-8.413-9.178-16.06-15.487-23.708-19.885
	c-6.31-3.632-12.81-5.735-19.119-6.5c-1.53-0.191-3.441-0.383-4.971-0.383c-5.353,0-10.707,0.956-15.486,3.06
	c-13.383,5.354-22.751,17.59-24.854,31.737C0.242,341.989,1.006,348.681,3.492,355.755z M89.719,345.813
	c10.324,13.001,17.016,25.237,19.311,35.562c0.956,4.397,1.147,8.221,0.573,11.662c-0.382,3.06-1.529,5.737-3.059,8.03
	c-3.632,5.162-9.75,8.413-16.825,8.413c-7.074,0-13.383-3.06-16.825-8.413c-1.529-2.293-2.677-4.97-3.059-8.03
	c-0.573-3.441-0.382-7.456,0.574-11.662C72.703,371.242,79.395,359.005,89.719,345.813z M13.434,336.827
	c1.338-9.941,8.03-18.545,17.398-22.369c4.589-1.911,9.56-2.485,14.531-1.911c4.78,0.573,9.56,2.103,14.53,4.971
	c6.883,3.823,13.766,9.751,21.796,18.545c-12.619,15.486-20.266,29.635-23.134,42.253c-1.338,5.928-1.529,11.28-0.956,16.252
	c0.765,4.779,2.485,9.177,5.162,13c5.927,8.604,15.869,13.575,26.958,13.575c11.089,0,21.031-5.162,26.958-13.575
	c2.677-3.823,4.397-8.222,5.162-13c0.765-4.972,0.574-10.516-0.956-16.252c-2.868-12.618-10.707-26.957-23.134-42.443
	c7.839-8.795,14.913-14.722,21.795-18.546c4.971-2.868,9.751-4.397,14.531-4.971c5.162-0.574,10.133,0.191,14.53,1.912
	c9.368,3.823,16.06,12.427,17.398,22.369c0.573,4.779,0.191,9.56-1.721,14.912c-0.574,1.912-1.53,3.824-2.486,6.118
	c-1.338,3.06-2.868,6.31-4.397,9.56l-0.191,0.383c-13.192,28.487-27.34,57.547-42.062,85.844l-0.573,1.146
	c-1.53,2.869-3.059,5.928-4.589,8.795c-1.529,3.06-3.25,5.928-5.353,8.413c-4.015,4.589-9.369,7.073-15.295,7.073
	s-11.28-2.484-15.295-7.073c-2.104-2.485-3.824-5.354-5.354-8.413c-1.53-2.867-3.059-5.926-4.589-8.795l-0.573-1.146
	c-14.53-28.487-28.679-57.548-41.871-86.036v-0.191c-1.53-3.059-2.868-6.5-4.397-9.56c-0.956-2.294-1.912-4.206-2.485-6.118
	C13.243,346.578,12.669,341.798,13.434,336.827z"/>
<text transform="matrix(0.8 0 0 1 186.7124 441.2891)" fill="#FF5A5F" font-family="'HelveticaNeueLTStd-Bd'" font-size="135">mokbnb</text>
</svg>
